<?xml version="1.0" encoding="UTF-8"?>
<svg version="1.1" xmlns="http://www.w3.org/2000/svg" width="407" height="423">
<path d="M0 0 C134.31 0 268.62 0 407 0 C407 139.59 407 279.18 407 423 C272.69 423 138.38 423 0 423 C0 283.41 0 143.82 0 0 Z " fill="#C6FE8E" transform="translate(0,0)"/>
<path d="M0 0 C18.48 0 36.96 0 56 0 C57.77383877 6.2084357 59.36664367 12.41273766 60.875 18.6875 C61.14038574 19.7909375 61.40577148 20.894375 61.67919922 22.03125 C63.48777522 29.63845626 65.11257431 37.26336961 66.59667969 44.93969727 C67.79085818 51.08270663 69.17519634 57.16467827 70.63452148 63.24951172 C72.44070405 70.7914341 73.9969017 78.30957968 75 86 C79.28821834 81.98767806 82.61692236 77.60032291 86 72.8125 C87.14176853 71.21342844 88.28370069 69.61447372 89.42578125 68.015625 C90.30290771 66.78295898 90.30290771 66.78295898 91.19775391 65.52539062 C94.17331241 61.35590036 97.18234511 57.21068097 100.1875 53.0625 C101.26497252 51.57468898 102.3418437 50.08644218 103.41796875 48.59765625 C103.86938232 47.97383057 104.3207959 47.35000488 104.78588867 46.70727539 C105.88699554 45.15890613 106.94608661 43.58087009 108 42 C110.125 42.00390625 110.125 42.00390625 113 43 C115.32091839 45.41576362 117.12691546 48.16780828 119 50.9375 C120.14416457 52.57577698 121.28870725 54.21378995 122.43359375 55.8515625 C123.01866699 56.69879883 123.60374023 57.54603516 124.20654297 58.41894531 C127.10432701 62.58929283 130.08462854 66.69916581 133.0625 70.8125 C133.59810547 71.55814209 134.13371094 72.30378418 134.68554688 73.07202148 C136.85038352 76.07893007 139.01811151 79.0220501 141.37109375 81.88671875 C143 84 143 84 143 86 C143.99 86 144.98 86 146 86 C146.12004395 85.34854004 146.24008789 84.69708008 146.36376953 84.02587891 C148.91366286 70.27372608 151.70274524 56.61391241 154.90429688 42.99829102 C156.77762459 35.02265911 158.43404653 27.04330645 160 19 C161.32 12.73 162.64 6.46 164 0 C182.81 0 201.62 0 221 0 C217.56281376 18.33165996 217.56281376 18.33165996 215.80859375 24.796875 C215.61781754 25.52263733 215.42704132 26.24839966 215.23048401 26.99615479 C214.63814001 29.2488857 214.03881538 31.49964865 213.4375 33.75 C211.11556697 42.44485837 208.88403263 51.0131108 207.53051758 59.92089844 C206.40822542 66.43463462 204.71246774 72.83674826 203.125 79.25 C202.78215735 80.64964295 202.43970806 82.04938232 202.09765625 83.44921875 C200.71839751 89.08221979 199.32782251 94.71217191 197.90551758 100.33447266 C197.7268515 101.04255066 197.54818542 101.75062866 197.36410522 102.48016357 C196.87206796 104.42717501 196.37740981 106.37352358 195.88256836 108.31982422 C194.96162205 112.16003023 194.18187059 115.99701578 193.4375 119.875 C192.46563466 124.91391052 191.24630506 129.72300803 189.68359375 134.60546875 C188.70121923 138.04658637 188.15454789 141.53057085 187.625 145.06640625 C187.06257754 147.70627666 186.32484121 150.13076246 185.4609375 152.68334961 C185.18813965 153.49219101 184.9153418 154.30103241 184.63427734 155.13438416 C184.42496582 155.75003738 184.2156543 156.36569061 184 157 C177.38686106 157.48550355 170.77834243 157.81579694 164.15136719 158.04370117 C161.90352918 158.13873251 159.6568504 158.2680386 157.41308594 158.43334961 C139.34757026 159.73005218 139.34757026 159.73005218 133.86901855 155.26211548 C130.05525413 150.77126419 127.51552699 145.6998722 125.0970459 140.35824585 C123.63814894 137.2221531 121.87386149 134.44681436 119.984375 131.55078125 C118.90532491 129.80525904 117.82715079 128.0591949 116.75 126.3125 C116.18410156 125.39662109 115.61820312 124.48074219 115.03515625 123.53710938 C113.68926434 121.35858942 112.34419274 119.17956861 111 117 C107.57349116 118.14216961 107.39208032 118.547131 105.72265625 121.55078125 C105.29017578 122.31455078 104.85769531 123.07832031 104.41210938 123.86523438 C103.74405273 125.07663086 103.74405273 125.07663086 103.0625 126.3125 C101.69474051 128.75814845 100.316361 131.18627334 98.87451172 133.58935547 C97.32741782 136.40426843 96.08010945 139.13719133 94.83251953 142.08642578 C88.67174182 155.54766178 88.67174182 155.54766178 82.36282349 158.04312134 C74.8480778 159.49695808 67.32850419 158.82519794 59.75 158.25 C57.44439719 158.14954506 55.13837303 158.05831288 52.83203125 157.9765625 C47.21207909 157.75738364 41.6080129 157.42413543 36 157 C35.82162598 156.22180908 35.64325195 155.44361816 35.45947266 154.6418457 C29.89550385 130.39639907 24.24789739 106.17052581 18.58660126 81.94765854 C18.01096021 79.48440044 17.43553534 77.02109193 16.86016846 74.55776978 C15.92623597 70.55961691 14.99167739 66.56161087 14.05662918 62.5637188 C13.68678833 60.9822935 13.31707463 59.40083846 12.94749069 57.8193531 C10.79764498 48.62194388 8.62925088 39.42926278 6.43359375 30.24267578 C6.01168765 28.47421498 5.58981225 26.70574685 5.16796875 24.93727112 C4.36315381 21.56374178 3.55389678 18.191319 2.7421875 14.81944275 C2.37874489 13.29771716 2.01545519 11.77595504 1.65234375 10.25415039 C1.48407578 9.56056238 1.3158078 8.86697437 1.1424408 8.15236855 C0.47750939 5.35198289 0 2.89123031 0 0 Z " fill="#010201" transform="translate(176,138)"/>
<path d="M0 0 C29.7 -0.061875 29.7 -0.061875 60 -0.125 C69.36632812 -0.15231201 69.36632812 -0.15231201 78.921875 -0.18017578 C86.56640625 -0.18920898 86.56640625 -0.18920898 90.14892578 -0.19088745 C92.64274815 -0.19395189 95.13656762 -0.20097209 97.63037109 -0.21115112 C101.41509118 -0.22582264 105.19963067 -0.22781089 108.984375 -0.22705078 C110.08916199 -0.234247 111.19394897 -0.24144321 112.33221436 -0.2488575 C127.3385973 -0.20860192 140.66203049 5.07205823 151.75 15.25 C161.5056905 25.61542116 163.74827371 40.57982778 163.40625 54.33203125 C161.93973891 67.57293423 154.19351116 79.16827982 144.01953125 87.49609375 C135.28571429 94 135.28571429 94 131 94 C135.09465238 101.71130325 139.47465635 109.21211867 144.03466797 116.65673828 C145.14965708 118.47777065 146.26088429 120.30105018 147.37109375 122.125 C150.22376158 126.8110642 153.0803905 131.49470061 155.94042969 136.17626953 C157.6317676 138.94795526 159.31668208 141.72343886 161 144.5 C161.49773926 145.31138428 161.99547852 146.12276855 162.50830078 146.95874023 C162.95931152 147.70454346 163.41032227 148.45034668 163.875 149.21875 C164.26429688 149.85748047 164.65359375 150.49621094 165.0546875 151.15429688 C166 153 166 153 167 157 C148.19 157 129.38 157 110 157 C108.02 153.37 106.04 149.74 104 146 C102.84234196 143.89445785 101.68264586 141.79003282 100.51953125 139.6875 C99.91963379 138.60065918 99.31973633 137.51381836 98.70166016 136.39404297 C97.4096364 134.07280825 96.10857498 131.75986135 94.79052734 129.45361328 C91.29074016 123.30473413 88.04443017 117.21507949 85.51489258 110.58544922 C83.54039076 106.73494523 80.65667068 103.41571944 78 100 C69.75 99.67 61.5 99.34 53 99 C53 118.14 53 137.28 53 157 C35.51 157 18.02 157 0 157 C0 105.19 0 53.38 0 0 Z " fill="#010201" transform="translate(11,138)"/>
<path d="M0 0 C17.49 0 34.98 0 53 0 C53 0.66 53 1.32 53 2 C54.32 2.66 55.64 3.32 57 4 C57.16301505 5.41279706 57.2788797 6.83108128 57.375 8.25 C57.47941406 9.43335938 57.47941406 9.43335938 57.5859375 10.640625 C56.85660935 13.57738634 55.55866477 14.58107393 53.03988647 16.16583252 C48.67188956 17.95203044 43.90037213 17.47899559 39.2578125 17.390625 C38.13430389 17.38496521 37.01079529 17.37930542 35.85324097 17.37347412 C32.27672109 17.351144 28.70121537 17.30095146 25.125 17.25 C22.695327 17.22993076 20.26563825 17.21168073 17.8359375 17.1953125 C11.89023625 17.15128983 5.94528988 17.08228337 0 17 C0 11.39 0 5.78 0 0 Z " fill="#BDF388" transform="translate(64,179)"/>
</svg>
